<?xml version="1.0" encoding="UTF-8"?>
<svg width="20px" height="20px" viewBox="0 0 20 20" version="1.1" xmlns="http://www.w3.org/2000/svg" xmlns:xlink="http://www.w3.org/1999/xlink">
    <!-- Generator: Sketch 55 (78076) - https://sketchapp.com -->
    <title>times-solid</title>
    <desc>Created with Sketch.</desc>
    <g id="Page-1" stroke="none" stroke-width="1" fill="none" fill-rule="evenodd">
        <g id="iPhone-8" transform="translate(-339.000000, -15.000000)" fill="#FFFFFF" fill-rule="nonzero">
            <g id="times-solid" transform="translate(339.000000, 15.000000)">
                <path d="M13.7909091,10 L19.4767045,4.31420455 C20.1744318,3.61647727 20.1744318,2.48522727 19.4767045,1.78693182 L18.2130682,0.523295455 C17.5153409,-0.174431818 16.3840909,-0.174431818 15.6857955,0.523295455 L10,6.20909091 L4.31420455,0.523295455 C3.61647727,-0.174431818 2.48522727,-0.174431818 1.78693182,0.523295455 L0.523295455,1.78693182 C-0.174431818,2.48465909 -0.174431818,3.61590909 0.523295455,4.31420455 L6.20909091,10 L0.523295455,15.6857955 C-0.174431818,16.3835227 -0.174431818,17.5147727 0.523295455,18.2130682 L1.78693182,19.4767045 C2.48465909,20.1744318 3.61647727,20.1744318 4.31420455,19.4767045 L10,13.7909091 L15.6857955,19.4767045 C16.3835227,20.1744318 17.5153409,20.1744318 18.2130682,19.4767045 L19.4767045,18.2130682 C20.1744318,17.5153409 20.1744318,16.3840909 19.4767045,15.6857955 L13.7909091,10 Z" id="Path"></path>
            </g>
        </g>
    </g>
</svg>