<?xml version="1.0" encoding="UTF-8"?>
<svg width="35px" height="31px" viewBox="0 0 35 31" version="1.1" xmlns="http://www.w3.org/2000/svg" xmlns:xlink="http://www.w3.org/1999/xlink">
    <!-- Generator: Sketch 55 (78076) - https://sketchapp.com -->
    <title>heart-regular</title>
    <desc>Created with Sketch.</desc>
    <g id="Page-1" stroke="none" stroke-width="1" fill="none" fill-rule="evenodd">
        <g id="heart-regular" transform="translate(0.000000, -1.000000)" fill="#FFFFFF" fill-rule="nonzero">
            <path d="M31.3358059,3.1875905 C27.3846369,-0.134672666 21.2801492,0.364350402 17.4998786,4.21298037 C13.7196079,0.364350402 7.61512027,-0.141508599 3.66395131,3.1875905 C-1.47666989,7.51473574 -0.724717319,14.569418 2.93934247,18.3086731 L14.929568,30.5244844 C15.6131612,31.2217495 16.5291762,31.6113976 17.4998786,31.6113976 C18.4774169,31.6113976 19.3865959,31.2285854 20.0701892,30.5313203 L32.0604147,18.315509 C35.7176386,14.576254 36.483263,7.52157168 31.3358059,3.1875905 Z M29.7225258,16.0049638 L17.7323003,28.2207751 C17.5682379,28.3848375 17.4315193,28.3848375 17.2674569,28.2207751 L5.27723137,16.0049638 C2.78211603,13.461997 2.27625703,8.64950053 5.77625444,5.70321364 C8.43543216,3.46786373 12.5369916,3.80282442 15.1073022,6.42098655 L17.4998786,8.86141444 L19.8924549,6.42098655 C22.4764374,3.78915256 26.5779969,3.46786373 29.2235027,5.69637771 C32.7166642,8.6426646 32.1971333,13.4825048 29.7225258,16.0049638 L29.7225258,16.0049638 Z" id="Shape"></path>
        </g>
    </g>
</svg>