<?xml version="1.0" encoding="UTF-8"?>
<svg width="35px" height="35px" viewBox="0 0 35 35" version="1.1" xmlns="http://www.w3.org/2000/svg" xmlns:xlink="http://www.w3.org/1999/xlink">
    <!-- Generator: Sketch 55 (78076) - https://sketchapp.com -->
    <title>clock-regular</title>
    <desc>Created with Sketch.</desc>
    <g id="Page-1" stroke="none" stroke-width="1" fill="none" fill-rule="evenodd">
        <g id="iPhone-8" transform="translate(-81.000000, -542.000000)" fill="#FFFFFF" fill-rule="nonzero">
            <g id="Group-3" transform="translate(26.000000, 98.000000)">
                <g id="Clock-lockup" transform="translate(55.000000, 444.000000)">
                    <g id="clock-regular">
                        <path d="M17.5,0 C7.83266129,0 0,7.83266129 0,17.5 C0,27.1673387 7.83266129,35 17.5,35 C27.1673387,35 35,27.1673387 35,17.5 C35,7.83266129 27.1673387,0 17.5,0 Z M17.5,31.6129032 C9.70262097,31.6129032 3.38709677,25.297379 3.38709677,17.5 C3.38709677,9.70262097 9.70262097,3.38709677 17.5,3.38709677 C25.297379,3.38709677 31.6129032,9.70262097 31.6129032,17.5 C31.6129032,25.297379 25.297379,31.6129032 17.5,31.6129032 Z M21.8608871,24.2459677 L15.8699597,19.8921371 C15.6512097,19.7298387 15.5241935,19.4758065 15.5241935,19.2076613 L15.5241935,7.62096774 C15.5241935,7.15524194 15.9052419,6.77419355 16.3709677,6.77419355 L18.6290323,6.77419355 C19.0947581,6.77419355 19.4758065,7.15524194 19.4758065,7.62096774 L19.4758065,17.6199597 L24.1895161,21.0493952 C24.5705645,21.3245968 24.6481855,21.8538306 24.3729839,22.234879 L23.046371,24.0625 C22.7711694,24.4364919 22.2419355,24.5211694 21.8608871,24.2459677 Z" id="Shape"></path>
                    </g>
                </g>
            </g>
        </g>
    </g>
</svg>